# xmcd CD database file
#
# Track frame offsets:
#	150
#	35161
#	65876
#	83529
#	111791
#	127196
#
# Disc length: 2039 seconds
#
# Revision: 0
# Processed by: cddbd v1.5.2PL0 Copyright (c) Steve Scherf et al.
# Submitted via: CDex 1.51
#
DISCID=5407f506
DTITLE=Springbalance - Litfass
DYEAR=1900
DGENRE=Jazz
TTITLE0=Salmonelle
TTITLE1=Ballade Banane
TTITLE2=Litfaß
TTITLE3=Gallery for three
TTITLE4=Pull in Moll
TTITLE5=Frühlingsgefühle
EXTD=
EXTT0=
EXTT1=
EXTT2=
EXTT3=
EXTT4=
EXTT5=
PLAYORDER=
